<svg width="78" height="77" viewBox="0 0 78 77" fill="none" xmlns="http://www.w3.org/2000/svg">
<path d="M25 52.7455V25H53V52.7455H25Z" fill="#86DEFA"/>
<path d="M46.3818 44.6V41.8L47.6545 41.2909V44.0909L46.3818 44.6Z" fill="#975313"/>
<path d="M43.8433 37.8613C43.8433 33.81 45.2978 31.1091 46.7523 31.1091C48.4978 31.1091 49.9523 34.2038 49.9523 37.8613C49.9523 39.8306 49.3123 41.8 46.7523 41.8C43.5523 41.8 43.8432 38.4909 43.8433 37.8613Z" fill="#03A142"/>
<path d="M34.1454 28.5636C34.1454 28.0113 33.6977 27.5636 33.1454 27.5636C32.5932 27.5636 32.1454 28.0113 32.1454 28.5636H34.1454ZM34.1454 32.6364V28.5636H32.1454V32.6364H34.1454Z" fill="#FBFF24"/>
<path d="M37.1467 30.973C37.5572 30.6036 37.5904 29.9713 37.221 29.5608C36.8515 29.1503 36.2192 29.117 35.8087 29.4864L37.1467 30.973ZM35.064 32.8474L37.1467 30.973L35.8087 29.4864L33.7261 31.3608L35.064 32.8474Z" fill="#FBFF24"/>
<path d="M37.7273 34.1454C38.2796 34.1454 38.7273 33.6977 38.7273 33.1454C38.7273 32.5932 38.2796 32.1454 37.7273 32.1454V34.1454ZM34.6727 34.1454H37.7273V32.1454H34.6727V34.1454Z" fill="#FBFF24"/>
<path d="M28.5636 32.1454C28.0114 32.1454 27.5636 32.5932 27.5636 33.1454C27.5636 33.6977 28.0114 34.1454 28.5636 34.1454L28.5636 32.1454ZM31.6182 32.1454L28.5636 32.1454L28.5636 34.1454L31.6182 34.1454L31.6182 32.1454Z" fill="#FBFF24"/>
<path d="M29.5104 35.6188C29.1268 36.0161 29.1378 36.6491 29.5351 37.0328C29.9323 37.4165 30.5654 37.4055 30.9491 37.0082L29.5104 35.6188ZM31.3632 33.7004L29.5104 35.6188L30.9491 37.0082L32.8019 35.0897L31.3632 33.7004Z" fill="#FBFF24"/>
<path d="M32.1454 37.7273C32.1454 38.2795 32.5932 38.7273 33.1454 38.7273C33.6977 38.7273 34.1454 38.2795 34.1454 37.7273L32.1454 37.7273ZM32.1454 34.6727L32.1454 37.7273L34.1454 37.7273L34.1454 34.6727L32.1454 34.6727Z" fill="#FBFF24"/>
<path d="M35.853 36.842C36.2843 37.187 36.9136 37.1171 37.2586 36.6859C37.6036 36.2546 37.5336 35.6253 37.1024 35.2803L35.853 36.842ZM33.7704 35.1759L35.853 36.842L37.1024 35.2803L35.0197 33.6142L33.7704 35.1759Z" fill="#FBFF24"/>
<path d="M30.5203 29.5226C30.1298 29.1321 29.4966 29.1321 29.1061 29.5226C28.7156 29.9132 28.7156 30.5463 29.1061 30.9368L30.5203 29.5226ZM32.603 31.6053L30.5203 29.5226L29.1061 30.9368L31.1888 33.0195L32.603 31.6053Z" fill="#FBFF24"/>
<circle cx="33.1454" cy="33.1455" r="2.03636" fill="#FBFF24"/>
<path d="M53 52.684H25C25 49.884 31.1091 47.5931 33.6545 47.5931C35.6909 47.5931 38.5758 48.781 39.7636 49.3749C40.2727 48.3567 43.1236 45.5058 45.3636 44.284C47.6036 43.0622 51.3879 43.2658 53 43.5204V52.684Z" fill="#266C25"/>
<path d="M22 23.5C22.8284 23.5 23.5 22.8284 23.5 22L23.5 8.5C23.5 7.67157 22.8284 7 22 7C21.1716 7 20.5 7.67157 20.5 8.5L20.5 20.5L8.5 20.5C7.67157 20.5 7 21.1716 7 22C7 22.8284 7.67157 23.5 8.5 23.5L22 23.5ZM6.93934 9.06066L20.9393 23.0607L23.0607 20.9393L9.06066 6.93934L6.93934 9.06066Z" fill="black"/>
<path d="M23.5 55C23.5 54.1716 22.8284 53.5 22 53.5L8.5 53.5C7.67157 53.5 7 54.1716 7 55C7 55.8284 7.67157 56.5 8.5 56.5L20.5 56.5L20.5 68.5C20.5 69.3284 21.1716 70 22 70C22.8284 70 23.5 69.3284 23.5 68.5L23.5 55ZM9.06066 70.0607L23.0607 56.0607L20.9393 53.9393L6.93934 67.9393L9.06066 70.0607Z" fill="black"/>
<path d="M54.5 22C54.5 22.8284 55.1716 23.5 56 23.5H69.5C70.3284 23.5 71 22.8284 71 22C71 21.1716 70.3284 20.5 69.5 20.5H57.5V8.5C57.5 7.67157 56.8284 7 56 7C55.1716 7 54.5 7.67157 54.5 8.5V22ZM68.9393 6.93934L54.9393 20.9393L57.0607 23.0607L71.0607 9.06066L68.9393 6.93934Z" fill="black"/>
<path d="M56 51.5C55.1716 51.5 54.5 52.1716 54.5 53V66.5C54.5 67.3284 55.1716 68 56 68C56.8284 68 57.5 67.3284 57.5 66.5V54.5H69.5C70.3284 54.5 71 53.8284 71 53C71 52.1716 70.3284 51.5 69.5 51.5H56ZM71.0607 65.9393L57.0607 51.9393L54.9393 54.0607L68.9393 68.0607L71.0607 65.9393Z" fill="black"/>
</svg>
