<svg width="62" height="62" viewBox="0 0 62 62" fill="none" xmlns="http://www.w3.org/2000/svg">
<path d="M0 61.4364V0H62V61.4364H0Z" fill="#86DEFA"/>
<path d="M47.3455 43.4V37.2L50.1636 36.0727V42.2727L47.3455 43.4Z" fill="#975313"/>
<path d="M41.7243 28.4785C41.7243 19.5077 44.9451 13.5273 48.1659 13.5273C52.0308 13.5273 55.2516 20.3799 55.2516 28.4785C55.2516 32.8392 53.8345 37.2 48.1659 37.2C41.0802 37.2 41.7243 29.8727 41.7243 28.4785Z" fill="#03A242"/>
<path d="M19.5364 7.89091C19.5364 7.06249 18.8648 6.39091 18.0364 6.39091C17.2079 6.39091 16.5364 7.06249 16.5364 7.89091H19.5364ZM19.5364 16.9091V7.89091H16.5364V16.9091H19.5364Z" fill="#FBFF24"/>
<path d="M26.4183 12.6951C27.0341 12.1409 27.084 11.1925 26.5298 10.5767C25.9756 9.96093 25.0272 9.91101 24.4114 10.4652L26.4183 12.6951ZM21.8068 16.8455L26.4183 12.6951L24.4114 10.4652L19.7999 14.6156L21.8068 16.8455Z" fill="#FBFF24"/>
<path d="M28.1818 19.5364C29.0103 19.5364 29.6818 18.8648 29.6818 18.0364C29.6818 17.2079 29.0103 16.5364 28.1818 16.5364V19.5364ZM21.4182 19.5364H28.1818V16.5364H21.4182V19.5364Z" fill="#FBFF24"/>
<path d="M7.89091 16.5364C7.06249 16.5364 6.39091 17.2079 6.39091 18.0364C6.39091 18.8648 7.06249 19.5364 7.89092 19.5364L7.89091 16.5364ZM14.6546 16.5364L7.89091 16.5364L7.89092 19.5364L14.6546 19.5364L14.6546 16.5364Z" fill="#FBFF24"/>
<path d="M10.5012 24.0093C9.92571 24.6052 9.94224 25.5548 10.5381 26.1303C11.134 26.7058 12.0836 26.6893 12.6591 26.0934L10.5012 24.0093ZM14.6038 19.7613L10.5012 24.0093L12.6591 26.0934L16.7618 21.8454L14.6038 19.7613Z" fill="#FBFF24"/>
<path d="M16.5364 28.1818C16.5364 29.0103 17.2079 29.6818 18.0364 29.6818C18.8648 29.6818 19.5364 29.0103 19.5364 28.1818L16.5364 28.1818ZM16.5364 21.4182L16.5364 28.1818L19.5364 28.1818L19.5364 21.4182L16.5364 21.4182Z" fill="#FBFF24"/>
<path d="M24.4778 25.6639C25.1247 26.1814 26.0687 26.0765 26.5862 25.4296C27.1037 24.7827 26.9988 23.8388 26.3519 23.3213L24.4778 25.6639ZM19.8663 21.9746L24.4778 25.6639L26.3519 23.3213L21.7404 19.632L19.8663 21.9746Z" fill="#FBFF24"/>
<path d="M11.7185 10.5195C11.1327 9.93369 10.183 9.93369 9.59718 10.5195C9.01139 11.1053 9.01139 12.055 9.59718 12.6408L11.7185 10.5195ZM16.3301 15.131L11.7185 10.5195L9.59718 12.6408L14.2087 17.2524L16.3301 15.131Z" fill="#FBFF24"/>
<circle cx="18.0364" cy="18.0364" r="4.50909" fill="#FBFF24"/>
<path d="M62 61.3003H0C0 55.1003 13.5273 50.0275 19.1636 50.0275C23.6727 50.0275 30.0606 52.6578 32.6909 53.973C33.8182 51.7185 40.1309 45.4057 45.0909 42.7003C50.0509 39.9948 58.4303 40.4457 62 41.0094V61.3003Z" fill="#266C25"/>
</svg>
