<svg width="35" height="30" viewBox="0 0 35 30" fill="none" xmlns="http://www.w3.org/2000/svg">
<path d="M25.2778 1.37977e-05C23.7687 -0.00248563 22.2798 0.334625 20.9296 0.984529C19.5793 1.63443 18.405 2.5792 17.5 3.74368C16.2743 2.17109 14.5668 1.01 12.6191 0.424706C10.6714 -0.16059 8.5821 -0.140452 6.64692 0.482271C4.71173 1.10499 3.02863 2.29877 1.83577 3.89467C0.642903 5.49057 0.000689456 7.40778 0 9.37501C0 20.6036 16.1779 29.4688 16.8666 29.8406C17.0601 29.9451 17.2782 30 17.5 30C17.7218 30 17.9399 29.9451 18.1334 29.8406C21.1088 28.1602 23.9014 26.1954 26.469 23.976C32.1297 19.0633 35 14.1508 35 9.37501C34.9971 6.88947 33.9718 4.50654 32.1492 2.749C30.3266 0.991455 27.8554 0.00283092 25.2778 1.37977e-05Z" fill="#F96060"/>
</svg>
