<svg width="36" height="32" viewBox="0 0 36 32" fill="none" xmlns="http://www.w3.org/2000/svg">
<path d="M18.0156 30.1875C18.0156 30.1875 2 21.2188 2 10.3281C2.00033 8.40327 2.6673 6.53793 3.88751 5.04925C5.10773 3.56057 6.80588 2.54045 8.69323 2.16232C10.5806 1.78419 12.5407 2.07139 14.2402 2.9751C15.9397 3.8788 17.2738 5.34323 18.0156 7.11941L18.0156 7.11942C18.7574 5.34325 20.0915 3.87881 21.7911 2.9751C23.4906 2.07139 25.4507 1.78419 27.338 2.16232C29.2254 2.54045 30.9235 3.56057 32.1437 5.04925C33.364 6.53793 34.0309 8.40327 34.0312 10.3281C34.0313 21.2188 18.0156 30.1875 18.0156 30.1875Z" stroke="black" stroke-width="3" stroke-linecap="round" stroke-linejoin="round"/>
</svg>
