<svg width="83" height="78" viewBox="0 0 83 78" fill="none" xmlns="http://www.w3.org/2000/svg">
<path d="M69.4308 3.71613L69.7582 0.734049L69.595 0.716125H69.4308V3.71613ZM69.4308 18.7659C67.7739 18.7659 66.4308 20.109 66.4308 21.7659C66.4308 23.4227 67.7739 24.7659 69.4308 24.7659V18.7659ZM47.2478 6.71613H69.4308V0.716125H47.2478V6.71613ZM69.1034 6.6982C70.3363 6.83359 72.2402 7.36633 73.7493 8.42687C75.1618 9.41947 76.1003 10.7513 76.1003 12.741H82.1003C82.1003 8.36016 79.8156 5.35655 77.1991 3.51782C74.6793 1.74703 71.7485 0.952582 69.7582 0.734049L69.1034 6.6982ZM76.1003 12.741C76.1003 16.5767 75.3673 17.5614 74.9424 17.9039C74.6822 18.1137 74.2162 18.3538 73.2823 18.5243C72.3309 18.6981 71.0936 18.7659 69.4308 18.7659V24.7659C71.1807 24.7659 72.8586 24.7009 74.3601 24.4267C75.8791 24.1494 77.4039 23.6263 78.7078 22.5753C81.4113 20.3961 82.1003 16.8684 82.1003 12.741H76.1003Z" fill="#686868"/>
<path d="M15.9262 31.8525L47.7787 0L79.6312 31.8525L47.7787 63.7049L15.9262 31.8525Z" fill="#C4C4C4"/>
<path d="M37.1612 11.1484L67.9519 43.0008" stroke="#DDDDDD" stroke-width="7"/>
<path d="M18.0497 15.9262H31.8525L15.9262 31.8525H9.55574C7.85694 31.8525 7.07833 38.9308 6.90137 42.47V75.9151C6.90137 80.162 2.30046 74.1455 0 70.6063V37.1612C0 25.6943 12.0332 18.2267 18.0497 15.9262Z" fill="#FF3434"/>
</svg>
