<svg width="77" height="75" viewBox="0 0 77 75" fill="none" xmlns="http://www.w3.org/2000/svg">
<path d="M42.5 44.5C41 49 39 61.3 39 74.5L27 74C27 70.531 27.2563 64.1569 28.1794 61.3416C25.7433 65.2045 21.4892 71 19 71C12.6667 66 0 53.6 0 44C10.3333 41.5 31.5 36.6 31.5 33L42.5 44.5Z" fill="#FFB525"/>
<path d="M70 1.1043L38 32.6043L44 38.6043L75 7.60431C77 5.60431 77.5 3.6043 75 1.1043C73 -0.895697 70.8333 0.27097 70 1.1043Z" fill="#346BFA"/>
<path d="M75 1.32516L41.4533 36L38 32.5C47.5378 23.1667 67.2053 3.72516 69.5733 1.32516C71.9413 -1.07484 74.1778 0.325164 75 1.32516Z" fill="#8FAEFF"/>
<path d="M42.6786 45C46.8829 40.3286 44.4304 35.2678 42.6786 33.3214C38.4743 29.1171 33.1411 31.5696 31 33.3214L42.6786 45Z" fill="#975313"/>
<path d="M23 47.4142C22.2442 48.0867 10.2792 55 4.14186 55L2.91991 53.5858L2 51.9888C9.81924 52.388 19.4783 46 19.4783 46L23 47.4142Z" fill="#855323"/>
<path d="M23 58.2C22.4092 58.6782 15.9538 63 11.1569 63L10.2018 61.9943L9 61C11.8966 61 20.1034 57 20.1034 57L23 58.2Z" fill="#855323"/>
</svg>
