<svg width="82" height="82" viewBox="0 0 82 82" fill="none" xmlns="http://www.w3.org/2000/svg">
<path d="M56.5067 5.49866L9.56267 52.4427L22.6027 58.528L66.0693 15.0613L56.5067 5.49866Z" fill="#FBFF37"/>
<path d="M60.8534 1.15201L56.5067 5.49868L76.5014 25.4933C77.0809 24.624 78.7616 22.3637 80.848 20.2773C82.9344 18.1909 81.7174 15.9307 80.848 15.0613L66.9387 1.15201C64.8523 -0.934391 62.0125 0.282676 60.8534 1.15201Z" fill="#FF3434"/>
<path d="M4.34666 68.96L9.56266 52.4427L22.6027 58.528L29.5573 72.4373L13.04 76.784L4.34666 68.96Z" fill="#FFC061"/>
<path d="M76.5013 25.4933L66.0693 15.0613L22.6027 58.528L29.5573 72.4374L76.5013 25.4933Z" fill="#F0D800"/>
<path d="M0 82L4.34667 68.96L13.04 76.784L0 82Z" fill="#615C5C"/>
</svg>
