<svg width="71" height="65" viewBox="0 0 71 65" fill="none" xmlns="http://www.w3.org/2000/svg">
<path d="M0.120326 64.5C-1.37968 63.5 11.6403 50 11.6403 50L19.6203 58.5L11.6403 64.5C11.6403 64.5 4.12032 65 0.120326 64.5Z" fill="#FBFF24"/>
<path d="M8.83019 35.6889L11.6604 33.546L36 58.7246L33.7358 60.8674H17.8868L15 63.5L6 54.4389L8.83019 51.7603V35.6889Z" fill="#FAC848"/>
<path d="M47 1.54602L13 29.046C9.80001 32.246 11.6667 35.3794 13 36.546C18.5 42.7127 30.2 55.746 33 58.546C35.8 61.346 38.8333 59.7127 40 58.546C48.5 48.046 66.2 26.346 69 23.546C71.8 20.746 70.1667 18.046 69 17.046C65.1667 13.046 56.8 4.34602 54 1.54602C51.2 -1.25398 48.1667 0.379358 47 1.54602Z" fill="#FBFF24"/>
<path d="M30 30H48" stroke="black" stroke-width="5"/>
<path d="M39 21L39 39" stroke="black" stroke-width="5"/>
</svg>
