<svg width="80" height="80" viewBox="0 0 80 80" fill="none" xmlns="http://www.w3.org/2000/svg">
<rect x="64.3467" width="22" height="91" transform="rotate(45 64.3467 0)" fill="#00D1FF"/>
<path d="M23.3213 41.1498L26.1497 38.3214L36.4962 48.6678C36.8867 49.0584 36.8867 49.6915 36.4962 50.082L35.082 51.4963C34.6915 51.8868 34.0583 51.8868 33.6678 51.4963L23.3213 41.1498Z" fill="#08748C"/>
<path d="M52 12.8284L54.8284 10L65.1748 20.3464C65.5654 20.737 65.5654 21.3701 65.1748 21.7607L63.7606 23.1749C63.3701 23.5654 62.7369 23.5654 62.3464 23.1749L52 12.8284Z" fill="#08748C"/>
<path d="M6.68515 58L4.99995 59.6852L10.8786 65.5639C11.2692 65.9544 11.9023 65.9544 12.2928 65.5639L12.5638 65.2929C12.9544 64.9024 12.9544 64.2692 12.5638 63.8787L6.68515 58Z" fill="#08748C"/>
<path d="M34.6852 30L33 31.6852L38.8786 37.5639C39.2692 37.9544 39.9023 37.9544 40.2928 37.5639L40.5638 37.2929C40.9544 36.9024 40.9544 36.2692 40.5638 35.8787L34.6852 30Z" fill="#08748C"/>
<path d="M12.6852 52L11 53.6852L16.8786 59.5639C17.2692 59.9544 17.9023 59.9544 18.2928 59.5639L18.5638 59.2929C18.9544 58.9024 18.9544 58.2692 18.5638 57.8787L12.6852 52Z" fill="#08748C"/>
<path d="M40.6852 24L39 25.6852L44.8786 31.5639C45.2692 31.9544 45.9023 31.9544 46.2928 31.5639L46.5638 31.2929C46.9544 30.9024 46.9544 30.2692 46.5638 29.8787L40.6852 24Z" fill="#08748C"/>
<path d="M18.6852 46L17 47.6852L22.8786 53.5639C23.2692 53.9544 23.9023 53.9544 24.2928 53.5639L24.5638 53.2929C24.9544 52.9024 24.9544 52.2692 24.5638 51.8787L18.6852 46Z" fill="#08748C"/>
<path d="M46.6852 18L45 19.6852L50.8786 25.5639C51.2692 25.9544 51.9023 25.9544 52.2928 25.5639L52.5638 25.2929C52.9544 24.9024 52.9544 24.2692 52.5638 23.8787L46.6852 18Z" fill="#08748C"/>
<path d="M60.6852 4L59 5.6852L64.8786 11.5639C65.2692 11.9544 65.9023 11.9544 66.2928 11.5639L66.5638 11.2929C66.9544 10.9024 66.9544 10.2692 66.5638 9.87868L60.6852 4Z" fill="#08748C"/>
</svg>
