<svg width="74" height="75" viewBox="0 0 74 75" fill="none" xmlns="http://www.w3.org/2000/svg">
<path d="M51.5 35.5L40 24C30 34.3333 10.2 54.9 9 56.5C7.5 58.5 7.5 62.5 7 64.5C6.5 66.5 2.5 70.1667 0 72L3 75C5.16667 72.5 9.5 68.5 12 68.5C14.3324 68.5 18 67.5 19.5 66.5C21 65.5 51.5 35.5 51.5 35.5Z" fill="#BED5FF"/>
<path d="M60 2.5L46 17.8464L57.4333 28L71.2736 15.026C74.2823 12.2055 74.2264 6.52451 71 3.50001C65.9391 -1.24419 62.2064 1.18379 60 2.5Z" fill="#DE52F4"/>
<path d="M66.5933 31.1608L42.8056 8.29377C40.337 10.8248 36.0848 14.6783 34.8999 15.8932C33.715 17.1081 34.1043 19.2367 34.6125 19.8971C40.0205 25.83 53.1798 38.1664 54.6984 39.6475C55.7109 40.635 57.7107 40.61 58.6981 39.5975L66.5933 31.1608Z" fill="#FD86F1"/>
<path d="M42.4994 14.7071C42.89 14.3166 43.5231 14.3166 43.9136 14.7071L45.3781 16.1716C45.7687 16.5621 45.7687 17.1953 45.3781 17.5858L38.8787 24.0852L36 21.2065L42.4994 14.7071Z" fill="#E43BD3"/>
<path d="M49.4994 21.7071C49.89 21.3166 50.5231 21.3166 50.9136 21.7071L52.3781 23.1716C52.7687 23.5621 52.7687 24.1953 52.3781 24.5858L45.8787 31.0852L43 28.2065L49.4994 21.7071Z" fill="#E43BD3"/>
<path d="M56.4994 28.7071C56.89 28.3166 57.5231 28.3166 57.9136 28.7071L59.3799 30.1734C59.7697 30.5632 59.7705 31.195 59.3817 31.5858L53 38L50 35.2065L56.4994 28.7071Z" fill="#E43BD3"/>
</svg>
