<svg width="67" height="67" viewBox="0 0 67 67" fill="none" xmlns="http://www.w3.org/2000/svg">
<rect x="3" y="3" width="60" height="60" fill="#25DB6E"/>
<rect x="20" y="20" width="26" height="26" fill="#0A7133"/>
<path d="M7.5 58C7.5 58.8284 8.17157 59.5 9 59.5L22.5 59.5C23.3284 59.5 24 58.8284 24 58C24 57.1716 23.3284 56.5 22.5 56.5L10.5 56.5L10.5 44.5C10.5 43.6716 9.82843 43 9 43C8.17157 43 7.5 43.6716 7.5 44.5L7.5 58ZM57.9393 6.93934L7.93934 56.9393L10.0607 59.0607L60.0607 9.06066L57.9393 6.93934Z" fill="black"/>
</svg>
