<svg width="54" height="54" viewBox="0 0 54 54" fill="none" xmlns="http://www.w3.org/2000/svg">
<circle cx="27" cy="27" r="25.5" fill="#56FFB8" stroke="black" stroke-width="3"/>
<path d="M21.4497 37H18.9976V20.7446L14.0801 22.5508V20.3359L21.0674 17.7124H21.4497V37ZM38.1665 17.7915V19.8613H37.7183C35.8198 19.8965 34.3081 20.459 33.1831 21.5488C32.0581 22.6387 31.4077 24.1724 31.2319 26.1499C32.2427 24.9897 33.6226 24.4097 35.3716 24.4097C37.0415 24.4097 38.373 24.9985 39.3662 26.1763C40.3682 27.354 40.8691 28.8745 40.8691 30.7378C40.8691 32.7153 40.3286 34.2974 39.2476 35.4839C38.1753 36.6704 36.7339 37.2637 34.9233 37.2637C33.0864 37.2637 31.5967 36.5605 30.4541 35.1543C29.3115 33.7393 28.7402 31.9199 28.7402 29.6963V28.7603C28.7402 25.2271 29.4917 22.5288 30.9946 20.6655C32.5063 18.7935 34.752 17.8354 37.7314 17.7915H38.1665ZM34.9629 26.4399C34.1279 26.4399 33.3589 26.6904 32.6558 27.1914C31.9526 27.6924 31.4648 28.3208 31.1924 29.0767V29.9731C31.1924 31.5552 31.5483 32.8296 32.2603 33.7964C32.9722 34.7632 33.8599 35.2466 34.9233 35.2466C36.022 35.2466 36.8833 34.8423 37.5073 34.0337C38.1401 33.2251 38.4565 32.166 38.4565 30.8564C38.4565 29.5381 38.1357 28.4746 37.4941 27.666C36.8613 26.8486 36.0176 26.4399 34.9629 26.4399Z" fill="black"/>
</svg>
