<svg width="54" height="54" viewBox="0 0 54 54" fill="none" xmlns="http://www.w3.org/2000/svg">
<circle cx="27" cy="27" r="25.5" fill="#31D472" stroke="black" stroke-width="3"/>
<path d="M33.4375 24.3438C33.4375 26.1837 32.7066 27.9483 31.4056 29.2493C30.1045 30.5503 28.3399 31.2812 26.5 31.2812" stroke="black" stroke-width="2" stroke-linecap="round" stroke-linejoin="round"/>
<path d="M17.2499 35.8419C19.8635 38.186 23.2709 39.4482 26.7808 39.3722C34.2211 39.2252 40.2701 33.1386 40.3736 25.6976C40.3998 23.8591 40.0603 22.0337 39.3748 20.3275C38.6894 18.6213 37.6716 17.0684 36.3807 15.759C35.0898 14.4496 33.5516 13.4099 31.8553 12.7002C30.1591 11.9905 28.3387 11.625 26.5 11.625H25.3438V16.25L10.3125 25.5L12.3052 28.2629C12.6852 28.789 13.205 29.1981 13.8057 29.4437C14.4064 29.6894 15.064 29.7617 15.7037 29.6526C18.2284 29.2252 22.65 28.9713 26.5 31.2812L26.5 31.2812L21.4076 38.4107" stroke="black" stroke-width="2" stroke-linecap="round" stroke-linejoin="round"/>
<path d="M25.9219 23.1875C26.8797 23.1875 27.6562 22.411 27.6562 21.4531C27.6562 20.4953 26.8797 19.7188 25.9219 19.7188C24.964 19.7188 24.1875 20.4953 24.1875 21.4531C24.1875 22.411 24.964 23.1875 25.9219 23.1875Z" fill="black"/>
</svg>
