<svg width="54" height="54" viewBox="0 0 54 54" fill="none" xmlns="http://www.w3.org/2000/svg">
<circle cx="27" cy="27" r="25.5" fill="#FF5858" stroke="black" stroke-width="3"/>
<path d="M29.9688 23.6094H34.5938" stroke="black" stroke-width="2" stroke-linecap="round" stroke-linejoin="round"/>
<path d="M18.4062 23.6094H23.0312" stroke="black" stroke-width="2" stroke-linecap="round" stroke-linejoin="round"/>
<path d="M20.7188 21.2969V25.9219" stroke="black" stroke-width="2" stroke-linecap="round" stroke-linejoin="round"/>
<path d="M32.862 16.0561L20.1413 16.0937C18.3743 16.0939 16.6638 16.7164 15.3101 17.8521C13.9563 18.9878 13.0459 20.564 12.7386 22.3041L12.7398 22.3043L10.3747 34.4685C10.2253 35.3161 10.35 36.1892 10.7306 36.9611C11.1113 37.733 11.7282 38.3634 12.4916 38.7608C13.255 39.1582 14.1252 39.3019 14.9758 39.1711C15.8265 39.0402 16.6132 38.6415 17.2219 38.033L17.2216 38.0328L23.4705 31.125L32.862 31.0874C34.8553 31.0874 36.7669 30.2956 38.1764 28.8861C39.5858 27.4767 40.3776 25.565 40.3776 23.5718C40.3776 21.5785 39.5858 19.6669 38.1764 18.2574C36.7669 16.848 34.8553 16.0561 32.862 16.0561V16.0561Z" stroke="black" stroke-width="2" stroke-linecap="round" stroke-linejoin="round"/>
<path d="M40.2635 22.2667L42.6267 34.4685C42.7761 35.3161 42.6514 36.1892 42.2707 36.9611C41.89 37.733 41.2732 38.3634 40.5098 38.7608C39.7464 39.1582 38.8762 39.3019 38.0255 39.1711C37.1749 39.0402 36.3881 38.6415 35.7795 38.033L35.7797 38.0328L29.5352 31.1007" stroke="black" stroke-width="2" stroke-linecap="round" stroke-linejoin="round"/>
</svg>
