<svg width="54" height="54" viewBox="0 0 54 54" fill="none" xmlns="http://www.w3.org/2000/svg">
<circle cx="27" cy="27" r="25.5" fill="#56FFB8" stroke="black" stroke-width="3"/>
<path d="M16.9805 25.2158H18.813C19.9644 25.1982 20.8696 24.895 21.5288 24.3062C22.188 23.7173 22.5176 22.9219 22.5176 21.9199C22.5176 19.6699 21.397 18.5449 19.1558 18.5449C18.1011 18.5449 17.2573 18.8481 16.6245 19.4546C16.0005 20.0522 15.6885 20.8477 15.6885 21.8408H13.2495C13.2495 20.3203 13.8032 19.0591 14.9106 18.0571C16.0269 17.0464 17.4419 16.541 19.1558 16.541C20.9663 16.541 22.3857 17.02 23.4141 17.978C24.4424 18.936 24.9565 20.2676 24.9565 21.9727C24.9565 22.8076 24.6841 23.6162 24.1392 24.3984C23.603 25.1807 22.8691 25.7651 21.9375 26.1519C22.9922 26.4858 23.8052 27.0396 24.3765 27.813C24.9565 28.5864 25.2466 29.5312 25.2466 30.6475C25.2466 32.3701 24.6841 33.7368 23.5591 34.7476C22.4341 35.7583 20.9707 36.2637 19.1689 36.2637C17.3672 36.2637 15.8994 35.7759 14.7656 34.8003C13.6406 33.8247 13.0781 32.5371 13.0781 30.9375H15.5303C15.5303 31.9482 15.8599 32.7568 16.519 33.3633C17.1782 33.9697 18.0615 34.2729 19.1689 34.2729C20.3467 34.2729 21.2476 33.9653 21.8716 33.3501C22.4956 32.7349 22.8076 31.8516 22.8076 30.7002C22.8076 29.584 22.4648 28.7271 21.7793 28.1294C21.0938 27.5317 20.105 27.2241 18.813 27.2065H16.9805V25.2158ZM41.1724 36H28.5952V34.2466L35.2397 26.8638C36.2241 25.7476 36.9009 24.8423 37.27 24.1479C37.6479 23.4448 37.8369 22.7197 37.8369 21.9727C37.8369 20.9707 37.5337 20.1489 36.9272 19.5073C36.3208 18.8657 35.5122 18.5449 34.5015 18.5449C33.2886 18.5449 32.3438 18.8921 31.667 19.5864C30.999 20.272 30.665 21.23 30.665 22.4604H28.2261C28.2261 20.6938 28.793 19.2656 29.9268 18.1758C31.0693 17.0859 32.5942 16.541 34.5015 16.541C36.2856 16.541 37.6963 17.0112 38.7334 17.9517C39.7705 18.8833 40.2891 20.127 40.2891 21.6826C40.2891 23.5723 39.085 25.8223 36.6768 28.4326L31.5352 34.0093H41.1724V36Z" fill="black"/>
</svg>
