<svg width="54" height="54" viewBox="0 0 54 54" fill="none" xmlns="http://www.w3.org/2000/svg">
<circle cx="27" cy="27" r="25.5" fill="#D06BFF" stroke="black" stroke-width="3"/>
<path d="M19.5 26C19.5 27.3807 18.3807 28.5 17 28.5C15.6193 28.5 14.5 27.3807 14.5 26C14.5 24.6193 15.6193 23.5 17 23.5C18.3807 23.5 19.5 24.6193 19.5 26Z" fill="black"/>
<path d="M30 26C30 27.3807 28.8807 28.5 27.5 28.5C26.1193 28.5 25 27.3807 25 26C25 24.6193 26.1193 23.5 27.5 23.5C28.8807 23.5 30 24.6193 30 26Z" fill="black"/>
<path d="M40.5 26C40.5 27.3807 39.3807 28.5 38 28.5C36.6193 28.5 35.5 27.3807 35.5 26C35.5 24.6193 36.6193 23.5 38 23.5C39.3807 23.5 40.5 24.6193 40.5 26Z" fill="black"/>
</svg>
