<svg width="54" height="54" viewBox="0 0 54 54" fill="none" xmlns="http://www.w3.org/2000/svg">
<circle cx="27" cy="27" r="25.5" fill="#92B0FF" stroke="black" stroke-width="3"/>
<path d="M39.2188 14.9375H13.7812C13.1427 14.9375 12.625 15.4552 12.625 16.0938V36.9062C12.625 37.5448 13.1427 38.0625 13.7812 38.0625H39.2188C39.8573 38.0625 40.375 37.5448 40.375 36.9062V16.0938C40.375 15.4552 39.8573 14.9375 39.2188 14.9375Z" stroke="black" stroke-width="2" stroke-linecap="round" stroke-linejoin="round"/>
<path d="M12.625 32.2812L19.9011 25.0051C20.0085 24.8977 20.136 24.8125 20.2763 24.7544C20.4165 24.6963 20.5669 24.6664 20.7187 24.6664C20.8706 24.6664 21.0209 24.6963 21.1612 24.7544C21.3015 24.8125 21.429 24.8977 21.5363 25.0051L27.9949 31.4637C28.1023 31.571 28.2297 31.6562 28.37 31.7143C28.5103 31.7724 28.6606 31.8023 28.8125 31.8023C28.9643 31.8023 29.1147 31.7724 29.255 31.7143C29.3952 31.6562 29.5227 31.571 29.6301 31.4637L32.6199 28.4738C32.7273 28.3665 32.8547 28.2813 32.995 28.2232C33.1353 28.1651 33.2856 28.1352 33.4375 28.1352C33.5893 28.1352 33.7397 28.1651 33.88 28.2232C34.0202 28.2813 34.1477 28.3665 34.2551 28.4738L40.375 34.5937" stroke="black" stroke-width="2" stroke-linecap="round" stroke-linejoin="round"/>
<path d="M30.5469 24.1875C31.5047 24.1875 32.2812 23.411 32.2812 22.4531C32.2812 21.4953 31.5047 20.7188 30.5469 20.7188C29.589 20.7188 28.8125 21.4953 28.8125 22.4531C28.8125 23.411 29.589 24.1875 30.5469 24.1875Z" fill="black"/>
</svg>
