<svg width="54" height="54" viewBox="0 0 54 54" fill="none" xmlns="http://www.w3.org/2000/svg">
<circle cx="27" cy="27" r="25.5" fill="#FF61D3" stroke="black" stroke-width="3"/>
<path d="M13.4688 16.6719H31.9688C33.1954 16.6719 34.3718 17.1592 35.2391 18.0265C36.1065 18.8939 36.5938 20.0702 36.5938 21.2969V35.1719C36.5938 35.4785 36.4719 35.7726 36.2551 35.9895C36.0383 36.2063 35.7442 36.3281 35.4375 36.3281H16.9375C15.7109 36.3281 14.5345 35.8408 13.6671 34.9735C12.7998 34.1061 12.3125 32.9298 12.3125 31.7031V17.8281C12.3125 17.5215 12.4343 17.2274 12.6512 17.0105C12.868 16.7937 13.1621 16.6719 13.4688 16.6719V16.6719Z" stroke="black" stroke-width="2" stroke-linecap="round" stroke-linejoin="round"/>
<path d="M36.5938 24.1875L44.6875 19.5625V33.4375L36.5938 28.8125" stroke="black" stroke-width="2" stroke-linecap="round" stroke-linejoin="round"/>
</svg>
