<svg width="54" height="54" viewBox="0 0 54 54" fill="none" xmlns="http://www.w3.org/2000/svg">
<circle cx="27" cy="27" r="25.5" fill="#56FFB8" stroke="black" stroke-width="3"/>
<path d="M23.0054 16.7915V18.8613H22.5571C20.6587 18.8965 19.147 19.459 18.022 20.5488C16.897 21.6387 16.2466 23.1724 16.0708 25.1499C17.0815 23.9897 18.4614 23.4097 20.2104 23.4097C21.8804 23.4097 23.2119 23.9985 24.2051 25.1763C25.207 26.354 25.708 27.8745 25.708 29.7378C25.708 31.7153 25.1675 33.2974 24.0864 34.4839C23.0142 35.6704 21.5728 36.2637 19.7622 36.2637C17.9253 36.2637 16.4355 35.5605 15.293 34.1543C14.1504 32.7393 13.5791 30.9199 13.5791 28.6963V27.7603C13.5791 24.2271 14.3306 21.5288 15.8335 19.6655C17.3452 17.7935 19.5908 16.8354 22.5703 16.7915H23.0054ZM19.8018 25.4399C18.9668 25.4399 18.1978 25.6904 17.4946 26.1914C16.7915 26.6924 16.3037 27.3208 16.0312 28.0767V28.9731C16.0312 30.5552 16.3872 31.8296 17.0991 32.7964C17.811 33.7632 18.6987 34.2466 19.7622 34.2466C20.8608 34.2466 21.7222 33.8423 22.3462 33.0337C22.979 32.2251 23.2954 31.166 23.2954 29.8564C23.2954 28.5381 22.9746 27.4746 22.333 26.666C21.7002 25.8486 20.8564 25.4399 19.8018 25.4399ZM38.8916 29.5532H41.5547V31.5439H38.8916V36H36.4395V31.5439H27.6987V30.1069L36.2944 16.8047H38.8916V29.5532ZM30.4673 29.5532H36.4395V20.1401L36.1494 20.6675L30.4673 29.5532Z" fill="black"/>
</svg>
