<svg width="21" height="22" viewBox="0 0 21 22" fill="none" xmlns="http://www.w3.org/2000/svg">
<path d="M18.7184 3.59375L4.28091 3.59376" stroke="black" stroke-linecap="round" stroke-linejoin="round"/>
<path d="M9.53125 7.53125V12.7812" stroke="black" stroke-linecap="round" stroke-linejoin="round"/>
<path d="M13.4688 7.53125V12.7812" stroke="black" stroke-linecap="round" stroke-linejoin="round"/>
<path d="M17.4059 3.59375V16.0625C17.4059 16.2365 17.3368 16.4035 17.2137 16.5265C17.0906 16.6496 16.9237 16.7188 16.7497 16.7188H6.24966C6.07562 16.7188 5.9087 16.6496 5.78563 16.5265C5.66255 16.4035 5.59341 16.2365 5.59341 16.0625V3.59375" stroke="black" stroke-linecap="round" stroke-linejoin="round"/>
<path d="M14.7812 3.59375V2.28125C14.7812 1.93315 14.643 1.59931 14.3968 1.35317C14.1507 1.10703 13.8168 0.96875 13.4688 0.96875H9.53125C9.18315 0.96875 8.84931 1.10703 8.60317 1.35317C8.35703 1.59931 8.21875 1.93315 8.21875 2.28125V3.59375" stroke="black" stroke-linecap="round" stroke-linejoin="round"/>
</svg>
